<svg id="Calque_1" data-name="Calque 1" xmlns="http://www.w3.org/2000/svg" viewBox="0 0 439.91 288.73"><defs><style>.cls-1{font-size:52.19px;}.cls-1,.cls-5{fill:#1d1d1b;stroke:#fff;font-family:CarterOne, Carter One;}.cls-2{letter-spacing:-0.01em;}.cls-3{letter-spacing:-0.01em;}.cls-4{fill:#0e1122;}.cls-5{font-size:111.79px;}.cls-6{letter-spacing:-0.01em;}.cls-7{fill:#355da8;stroke:#1d1d1b;stroke-miterlimit:10;}</style></defs><text class="cls-1" transform="translate(56.97 265.52)">C<tspan class="cls-2" x="32.98" y="0">L</tspan><tspan class="cls-3" x="58.46" y="0">E</tspan><tspan x="87.95" y="0">EREMANS</tspan></text><path class="cls-4" d="M453.75,312.35c.62-.1,1.24-.17,1.86-.23,1.25-.1,2.5-.12,3.75-.1,2.52,0,5,.25,7.56.25s5.14-.25,7.7,0a2.19,2.19,0,0,0,1.34-.08c.42-.28.2-.88,0-1.23a18.28,18.28,0,0,0-1.91-2.94c-.37-.46-.75-.91-1.15-1.34a5.74,5.74,0,0,0-1.28-1.13,5,5,0,0,0-2.95-.33l-.46.05q-1.29.13-2.55.39a26.61,26.61,0,0,0-4.26,1.33c-1.39.56-2.77,1.16-4.14,1.78a13.94,13.94,0,0,0-5.74,4,1.39,1.39,0,0,0,.41,0C452.55,312.59,453.15,312.44,453.75,312.35Z" transform="translate(-83.83 -299.11)"/><path class="cls-4" d="M466.44,312.81c-2.64,0-5.27-.27-7.9-.27a30,30,0,0,0-3.91.21c-.65.08-1.3.19-1.94.33l-.18,0a8.28,8.28,0,0,0,1.94.62c.92.18,1.85.26,2.78.38,3.79.49,7.54,1.27,11.34,1.65.94.1,1.88.17,2.83.2a5,5,0,0,0,2.45-.38,4.83,4.83,0,0,0,2-2.81,4,4,0,0,1-1.33,0C471.85,312.59,469.14,312.86,466.44,312.81Z" transform="translate(-83.83 -299.11)"/><path class="cls-4" d="M515.34,346.06q-.24-2.82-.54-5.63a50.57,50.57,0,0,0-.77-5.6,27.86,27.86,0,0,0-1.63-5c-.35-.82-.7-1.63-1.08-2.43-.14-.28-.27-.57-.4-.86.06.32-.44.44-.55.11s-.28-.91-.43-1.36a63.68,63.68,0,0,0-4.61-10.58,61.41,61.41,0,0,0-6.46-9.61,15.4,15.4,0,0,0-4.18-3.66,16.84,16.84,0,0,0-4.9-1.82,24,24,0,0,0-10.53.21,20.46,20.46,0,0,0-9.08,4.76,5.51,5.51,0,0,1,.57.06h.05a.12.12,0,0,1,.09,0l.13,0a3.78,3.78,0,0,1,1.57.83,12.41,12.41,0,0,1,1.27,1.34c.39.46.77,1,1.13,1.44s.71,1,1,1.56a4.49,4.49,0,0,1,.72,1.59,1.29,1.29,0,0,1-.07.68.27.27,0,0,1,0,.15c-.5,1.58-1.26,3.36-2.92,4a6.74,6.74,0,0,1-2.68.26l-.58,0a2.74,2.74,0,0,0,0,.7,5.46,5.46,0,0,0,2,2.93c.95.84,1.93,1.64,2.83,2.54.46.46.91.94,1.34,1.43s.81,1,.46,1.56a3.59,3.59,0,0,1-.59.7c-.21.23-.44.43-.67.64-.47.4-1,.78-1.46,1.15-2,1.55-4,3.18-5.86,4.92a76.16,76.16,0,0,0-5.31,5.47,30.52,30.52,0,0,0-2.4,3,19,19,0,0,0-1,1.63c-.16.27-.3.56-.45.83s-.33.57-.48.85a.12.12,0,0,1-.14.07l-.09.15q-1.85,3.07-3.7,6.14c-1.17,2-2.34,3.92-3.61,5.82a48.49,48.49,0,0,1-4.08,5.3c-1.46,1.64-3,3.18-4.65,4.68-3.41,3.16-6.92,6.23-10.39,9.34L421.52,386c-.37.33-.91.68-1.09,1.16s.3.59.66.57a5.57,5.57,0,0,0,1.32-.34,15.08,15.08,0,0,0,1.46-.55,18.06,18.06,0,0,0,4.29-2.65l.94-.83c.11-.09.24,0,.15.14l-.1.12a.16.16,0,0,1,0,.19,12,12,0,0,1-1.09,1.05l-.15.12h0a61.06,61.06,0,0,1-6.11,5.25,70.63,70.63,0,0,1-6.78,4.58c-1.16.68-2.34,1.34-3.53,2-.6.31-1.2.62-1.81.91-.31.15-.63.28-.93.45a1.28,1.28,0,0,0-.55.45c-.29.57.6,1,1,1.19a6.54,6.54,0,0,0,1.89.56,15.29,15.29,0,0,0,4.11-.07c5.51-.67,10.57-3.2,15.43-5.72,2.33-1.2,4.67-2.4,7-3.57s4.57-2.3,6.8-3.55a40.28,40.28,0,0,0,11.73-9.25c.23-.28.62.12.39.39-.39.49-.8,1-1.22,1.42a37.57,37.57,0,0,1-6.66,5.53.88.88,0,0,0,.63.75,2.32,2.32,0,0,0,1.28,0,10.17,10.17,0,0,0,2.33-.79A18.55,18.55,0,0,0,456.6,383q1.86-1.53,3.57-3.23c2.32-2.27,4.47-4.71,6.61-7.15.24-.27.64.13.4.41-1.26,1.44-2.53,2.88-3.84,4.29a57.8,57.8,0,0,1-7.36,6.89,17.85,17.85,0,0,1-1.84,1.23.08.08,0,0,1,0,0c.06.59.12,1.18.22,1.76a4.36,4.36,0,0,0,.42,1.37c.48.84,1.52.82,2.36.76a.28.28,0,0,1,.27.2c.2,1.25.4,2.75,1.57,3.5a.28.28,0,0,1,.06.43c0,.73,0,1.47.08,2.2.07,1.37.25,2.73.45,4.08.1.63.18,1.27.31,1.9a2.6,2.6,0,0,0,.63,1.4.26.26,0,0,1-.06.43c0,.29,0,.58.07.87s.1.66.16,1c.12.65.25,1.3.37,2a46.49,46.49,0,0,1,.79,7,33.62,33.62,0,0,1-.09,3.48,23.54,23.54,0,0,0-.24,3.45c0,.28-.39.32-.47.08a2.16,2.16,0,0,1-1,.51,19,19,0,0,1-2.25.29c-.77.09-1.53.2-2.3.33q-.57.09-1.14.21a2.77,2.77,0,0,0-.94.28,1.77,1.77,0,0,0-.57.7,4.74,4.74,0,0,0-.37,1c-.07.26-.17.59.08.79a.89.89,0,0,0,.78.11,4.62,4.62,0,0,0,.91-.41c.32-.16.66-.32,1-.46a18.12,18.12,0,0,1,2-.72,16.89,16.89,0,0,1,2.09-.44,3.11,3.11,0,0,1,2,.12.25.25,0,0,1,.12.29,5.59,5.59,0,0,1,1.07,1.54,3.07,3.07,0,0,0,1.76,1.44,5.55,5.55,0,0,0,2.53,0,7.54,7.54,0,0,1,2.27-.11,3,3,0,0,1,1.9,1.06c.39.47.86,1.2,1.58,1.13.33,0,.48-.31.56-.6a3.83,3.83,0,0,0,.21-1.16,1.73,1.73,0,0,0-1.26-1.5,7.23,7.23,0,0,0-2.35-.47c-.43,0-.86,0-1.29-.07a4.84,4.84,0,0,1-1.37-.14.22.22,0,0,1,0-.42,3,3,0,0,1,.84,0l.82,0c.51,0,1,.05,1.51.1a6,6,0,0,1,2.72.82,2.24,2.24,0,0,1,.76.83,2.18,2.18,0,0,1,.09.23l.19-.16a2,2,0,0,0,.32-.38,1.62,1.62,0,0,0,.25-1c-.11-1.62-2.27-1.46-3.41-1.44a14.09,14.09,0,0,1-2.34-.08,5.11,5.11,0,0,1-1-.27,2,2,0,0,1-.86-.55.06.06,0,0,1,.06-.1c.21,0,.41.14.61.2l.64.16a6.61,6.61,0,0,0,1.33.15c.88,0,1.76-.06,2.64,0a6,6,0,0,1,.94.07,3.13,3.13,0,0,1,0-.44,2.13,2.13,0,0,0-.07-.44.76.76,0,0,0-.58-.61,5.08,5.08,0,0,0-1.23.06l-1.25.08a10,10,0,0,1-2.5-.15,5.44,5.44,0,0,1-1.87-.75,3.8,3.8,0,0,1-.94-.86.26.26,0,0,1-.33-.17,18.06,18.06,0,0,1-.32-1.93q-.14-.94-.24-1.89a60.23,60.23,0,0,1-.38-6.85c0-1.14,0-2.28.11-3.41a12.5,12.5,0,0,1,.36-2.44.21.21,0,0,1,0-.11,3.19,3.19,0,0,1,.35-1.41c.18-.46.38-.9.6-1.35a21.41,21.41,0,0,0,1-2.36,17.83,17.83,0,0,0,.62-2.52,25.12,25.12,0,0,0,.31-2.61c0-.44.07-.87.09-1.31s0-.84.1-1.26a4.79,4.79,0,0,1-.73-.24c-.11-.05-.05-.25.07-.24.68.06,1.35.14,2,.17s1.35,0,2,0c2.52,0,5,0,7.56,0a16.5,16.5,0,0,0,3.64-.4,3.85,3.85,0,0,0,2.43-1.32c.2-.3.68,0,.49.28a2.83,2.83,0,0,1-.34.42,12.47,12.47,0,0,1-.63,3.73,13.32,13.32,0,0,0-.65,3.53,5.76,5.76,0,0,0,.88,3.07c1.12,1.85,2.87,3.2,4.07,5,0,0,0,0,0,.07a5.43,5.43,0,0,1,1.09.79,5.5,5.5,0,0,1,1.12,1.5c.55,1,1.06,2.05,1.57,3.08s1,2.09,1.45,3.17a28.59,28.59,0,0,1,1.17,3.25,17.67,17.67,0,0,1,.71,3.38.26.26,0,0,1-.29.27.67.67,0,0,1-.06.12,3.16,3.16,0,0,1-1.1,1.08,7,7,0,0,1-1.52.78c-.91.35-2.05.64-2.48,1.64a1.06,1.06,0,0,0,.13,1.17c.37.37.87-.07,1.15-.33a6,6,0,0,1,1.25-.94,3.21,3.21,0,0,1,1.58-.38,9.43,9.43,0,0,1,1.83.29l1.86.42a5.91,5.91,0,0,1,3,1.33,3.63,3.63,0,0,1,.83,1.28,5.84,5.84,0,0,1,.27,1.5,2.5,2.5,0,0,0,.39,1.36c.16.19.28.18.41,0a2.76,2.76,0,0,0,.28-.74,5,5,0,0,0,.16-1.73,2.06,2.06,0,0,0-.75-1.39,15.64,15.64,0,0,0-2.89-2c-.32-.17,0-.65.28-.48l.79.46a16.66,16.66,0,0,1,1.56,1.08,5.41,5.41,0,0,1,1.07,1,.29.29,0,0,1,.23,0l1,.23a4.56,4.56,0,0,1,.72.21,1.17,1.17,0,0,1,.78,1.13c0,.34-.23,1.06.18,1.26s.49-.6.56-.78a2.75,2.75,0,0,0,.18-1.39,1.54,1.54,0,0,0-.6-.95,4.11,4.11,0,0,0-1.09-.54c-.47-.16-.94-.31-1.4-.48s-1-.39-1.48-.6a7.19,7.19,0,0,1-.75-.34c-.24-.13-.47-.28-.71-.4s0-.24.08-.2c.32.13.65.21,1,.33l.92.35c.62.24,1.25.45,1.88.65a4.53,4.53,0,0,1,2.37,1.28l0,0c.05-.15.11-.29.15-.44a4.19,4.19,0,0,0,.13-.69c0-.37.1-.95-.21-1.22a2.38,2.38,0,0,0-1-.34l-1.39-.32-2.71-.61a6.25,6.25,0,0,1-1.21-.36,2.55,2.55,0,0,1-.9-.73,7.79,7.79,0,0,1-.7-1l-.12-.22a.26.26,0,0,1-.31-.13c-.54-1.22-1.1-2.43-1.68-3.64q-1.53-3.18-3.26-6.26c-.57-1-1.16-2.05-1.74-3.07a6.14,6.14,0,0,1-1-2.4l0,0c-.17.15-.53,0-.43-.24a4.3,4.3,0,0,1,.39-.65c.13-.2.26-.4.38-.61a10.06,10.06,0,0,0,.62-1.28,7.34,7.34,0,0,0,.46-2.62c0-.95-.12-1.89-.19-2.83a12.59,12.59,0,0,1,0-2.53,6.44,6.44,0,0,1,.31-1.26,3.93,3.93,0,0,1-.38.31c-.08.05-.17-.06-.13-.13a9.76,9.76,0,0,1,.84-1.08l.86-1.06q.84-1.08,1.62-2.19a66.83,66.83,0,0,0,4.87-8.45c.73-1.46,1.43-2.93,2.13-4.41.41-.85.81-1.69,1.21-2.54l.6-1.26c.07-.16.15-.31.22-.47s.11-.41.18-.62.14-.65.48-.47c.49.26.06.93-.12,1.28a6.94,6.94,0,0,0-.11,2.61,5.79,5.79,0,0,0,.68-.29c2.69-1.38,4.31-4.22,5.73-6.76a40.31,40.31,0,0,0,4-9.46,25.23,25.23,0,0,0,.8-5A42.33,42.33,0,0,0,515.34,346.06Z" transform="translate(-83.83 -299.11)"/><text class="cls-5" transform="translate(0.5 205.97) scale(1.37 1)">NO<tspan class="cls-6" x="163.49" y="0">A</tspan><tspan x="238.38" y="0">H</tspan></text><circle class="cls-7" cx="400.25" cy="7.63" r="2.98"/></svg>